#!OML:ASF H:\Terrain\Patient Classification 1\Terrain2\Thursday\justin.ASF
:FULLY-SPECIFIED
:DEGREES
3526
root 9.70429 18.0407 2.07228 -179.022 1.29887 -171.055
lowerback 4.19644 -0.147883 6.93721
upperback 2.55957 0.565675 4.94293
thorax 0.284084 0.542927 1.19293
lowerneck -12.1549 -4.7602 -8.741
upperneck 40.2841 0.254512 1.50077
head 16.732 0.666752 2.78712
rclavicle -1.18277e-014 -6.04305e-014
rhumerus -29.19 -12.3862 -76.3028
rradius 28.1861
rwrist -8.67562
rhand -19.2232 9.98715
rfingers 7.12502
rthumb 7.08965 -19.8741
lclavicle -1.18277e-014 -6.04305e-014
lhumerus -36.2036 3.86743 86.5101
lradius 31.8402
lwrist -1.06118
lhand -15.4194 19.6735
lfingers 7.12502
lthumb 10.7602 -310.622
rfemur -4.03057 -5.36281 33.0346
rtibia 15.1934
rfoot -7.509 9.90912
rtoes 19.0551
lfemur -16.7325 1.26806 -7.71139
ltibia 62.5347
lfoot 2.40818 -7.55009
ltoes 1.69256
3527
root 9.71678 18.0154 1.96394 -179.125 1.38978 -171.207
lowerback 4.35919 0.00148391 6.80643
upperback 2.50692 0.763159 4.83253
thorax 0.144759 0.629114 1.14066
lowerneck -11.9182 -4.78603 -8.82762
upperneck 40.1297 0.0965871 1.74064
head 16.5969 0.626843 2.87403
rclavicle -1.78906e-015 -2.46493e-014
rhumerus -29.245 -11.6775 -76.5279
rradius 28.4936
rwrist -9.32595
rhand -19.3261 9.61496
rfingers 7.12502
rthumb 6.99037 -20.2496
lclavicle -1.78906e-015 -2.46493e-014
lhumerus -36.3595 4.12592 86.3541
lradius 32.143
lwrist -0.436038
lhand -16.1212 19.1645
lfingers 7.12502
lthumb 10.0832 -311.097
rfemur -3.4441 -5.22498 32.9186
rtibia 15.2068
rfoot -8.07263 9.67783
rtoes 17.4458
lfemur -17.6769 1.34365 -7.90997
ltibia 62.5204
lfoot 1.2967 -6.80411
ltoes 2.70295
3528
root 9.72888 17.9841 1.85643 -179.17 1.54369 -171.249
lowerback 4.41311 0.146574 6.76369
upperback 2.56942 0.949027 4.75276
thorax 0.185806 0.720887 1.07427
lowerneck -11.9622 -4.80491 -8.84505
upperneck 40.0168 -0.0264568 1.87768
head 16.5528 0.583109 2.9101
rclavicle 9.93923e-016 1.82882e-014
rhumerus -28.9872 -11.4189 -76.7104
rradius 28.6551
rwrist -9.51625
rhand -19.3234 9.67419
rfingers 7.12502
rthumb 6.99298 -20.1903
lclavicle 9.93923e-016 1.82882e-014
lhumerus -36.3495 4.0736 86.3428
lradius 32.4731
lwrist 0.627353
lhand -16.2308 18.3195
lfingers 7.12502
lthumb 9.97747 -311.937
rfemur -2.9442 -5.30562 32.9239
rtibia 15.2568
rfoot -8.8028 9.61187
rtoes 14.9209
lfemur -18.6068 1.36884 -7.96518
ltibia 62.402
lfoot -0.0279933 -5.92825
ltoes 7.79817
3529
root 9.73616 17.9762 1.74504 -179.119 1.69099 -170.711
lowerback 4.44736 0.252419 7.45153
upperback 2.59429 1.1414 4.78505
thorax 0.210651 0.834519 0.7202
lowerneck -12.0431 1.13407 -10.0009
upperneck 39.5829 -2.82034 4.61399
head 16.3559 -3.80509 2.85058
rclavicle 1.10325e-014 5.1684e-014
rhumerus -28.6787 -11.6222 -76.7669
rradius 28.786
rwrist -9.37805
rhand -19.2629 9.80136
rfingers 7.12502
rthumb 7.05138 -20.0612
lclavicle 1.10325e-014 5.1684e-014
lhumerus -36.3682 3.65118 86.4972
lradius 32.8751
lwrist 2.05521
lhand -16.9595 19.1104
lfingers 7.12502
lthumb 9.27443 -311.114
rfemur -2.79092 -5.28443 33.4884
rtibia 15.541
rfoot -9.1404 9.76044
rtoes 15.5373
lfemur -19.5585 1.438 -7.36283
ltibia 62.072
lfoot -1.45073 -5.67833
ltoes 10.2482
3530
root 9.74208 17.9714 1.63093 -179.091 1.75673 -170.228
lowerback 4.47055 0.325266 8.08006
upperback 2.55997 1.28584 4.80865
thorax 0.181185 0.918799 0.392009
lowerneck -11.9527 1.11506 -9.84151
upperneck 39.5073 -2.855 4.55575
head 16.2937 -3.7939 2.79158
rclavicle -1.19271e-015 -9.54166e-015
rhumerus -28.5467 -11.6276 -76.857
rradius 29.0468
rwrist -9.41616
rhand -19.4882 9.78249
rfingers 7.12502
rthumb 6.83393 -20.0872
lclavicle -1.19271e-015 -9.54166e-015
lhumerus -36.5295 3.17745 86.7853
lradius 33.297
lwrist 4.32334
lhand -19.6628 19.8898
lfingers 7.12502
lthumb 6.66538 -310.235
rfemur -2.67755 -4.86856 33.9485
rtibia 16.0197
rfoot -9.15197 9.71508
rtoes 19.1168
lfemur -20.4032 1.53846 -6.84407
ltibia 61.5462
lfoot -2.52842 -5.91027
ltoes 8.23605
3531
root 9.74771 17.937 1.52167 -179.105 1.78394 -170.135
lowerback 4.45803 0.447012 8.28964
upperback 2.56981 1.44843 4.72049
thorax 0.214977 1.00154 0.17974
lowerneck -11.9141 1.08837 -9.75519
upperneck 39.4498 -2.96525 4.73635
head 16.2658 -3.79173 2.84043
rclavicle -6.26172e-015 -2.3059e-014
rhumerus -28.3819 -11.6612 -76.9782
rradius 29.1807
rwrist -9.51862
rhand -19.8855 9.8969
rfingers 7.12502
rthumb 6.4504 -19.9849
lclavicle -6.26172e-015 -2.3059e-014
lhumerus -36.4823 2.99609 86.8505
lradius 33.453
lwrist 5.53952
lhand -21.3255 19.6525
lfingers 7.12502
lthumb 5.06006 -310.428
rfemur -2.38399 -4.68008 34.0265
rtibia 16.441
rfoot -9.54107 9.67157
rtoes 20.1886
lfemur -21.1484 1.59184 -6.78443
ltibia 60.8778
lfoot -3.27897 -6.17505
ltoes 5.33662
3532
root 9.75295 17.9018 1.41781 -179.149 1.82039 -170.172
lowerback 4.6175 0.528795 8.28984
upperback 2.54079 1.57405 4.67619
thorax 0.104249 1.05827 0.124616
lowerneck -11.9737 1.07518 -9.81099
upperneck 39.441 -2.97349 4.83793
head 16.2795 -3.78157 2.89621
rclavicle 2.03754e-014 2.74323e-014
rhumerus -28.2161 -11.2677 -77.0748
rradius 29.3361
rwrist -9.96509
rhand -20.0187 9.97546
rfingers 7.12502
rthumb 6.32175 -19.9102
lclavicle 2.03754e-014 2.74323e-014
lhumerus -36.5138 3.46289 86.5554
lradius 33.5708
lwrist 4.49757
lhand -19.4974 19.7454
lfingers 7.12502
lthumb 6.82505 -310.385
rfemur -2.10877 -4.69684 33.9999
rtibia 16.83
rfoot -10.0998 9.65839
rtoes 18.6444
lfemur -21.9166 1.51014 -6.88964
ltibia 60.1277
lfoot -3.9292 -6.12274
ltoes 3.7956
3533
root 9.75834 17.8941 1.30483 -179.261 1.81666 -170.087
lowerback 4.82644 0.504248 8.39016
upperback 2.50639 1.58285 4.71504
thorax -0.046731 1.0616 0.103773
lowerneck -11.9356 1.10356 -9.77675
upperneck 39.3607 -2.81828 4.62293
head 16.208 -3.73029 2.82109
rclavicle 1.31198e-014 2.74323e-014
rhumerus -28.0764 -10.5051 -77.1983
rradius 29.6558
rwrist -10.5909
rhand -19.8339 9.89193
rfingers 7.12502
rthumb 6.5002 -19.9883
lclavicle 1.31198e-014 2.74323e-014
lhumerus -36.7195 4.65632 85.8757
lradius 33.6232
lwrist 2.13553
lhand -16.1798 18.9811
lfingers 7.12502
lthumb 10.0267 -311.278
rfemur -1.74293 -4.83104 34.0706
rtibia 17.1776
rfoot -10.7148 9.70791
rtoes 17.6833
lfemur -22.614 1.46113 -6.8858
ltibia 59.3464
lfoot -4.92824 -5.92274
ltoes 2.12034
3534
root 9.76456 17.8863 1.18884 -179.303 1.78829 -169.986
lowerback 4.83495 0.55029 8.53502
upperback 2.53254 1.65527 4.71535
thorax -0.0160311 1.10295 0.0218124
lowerneck -11.7747 1.05184 -9.73047
upperneck 39.1043 -2.8196 4.56556
head 16.0336 -3.70272 2.79007
rclavicle -3.13086e-014 -1.15295e-013
rhumerus -27.7612 -10.0483 -77.2912
rradius 29.753
rwrist -10.8405
rhand -19.9829 9.78257
rfingers 7.12502
rthumb 6.35633 -20.1021
lclavicle -3.13086e-014 -1.15295e-013
lhumerus -36.7914 3.99928 86.4442
lradius 34.0065
lwrist 5.16495
lhand -19.7799 19.3612
lfingers 7.12502
lthumb 6.55226 -310.76
rfemur -1.35331 -4.99864 34.1526
rtibia 17.3769
rfoot -11.3802 9.77687
rtoes 18.3559
lfemur -23.3309 1.52278 -6.87535
ltibia 58.5032
lfoot -5.7953 -5.72515
ltoes 0.310555
3535
root 9.77297 17.8688 1.08144 -179.304 1.80347 -170.007
lowerback 4.86878 0.67159 8.54253
upperback 2.55846 1.81295 4.64973
thorax 0.00451462 1.18063 -0.0572728
lowerneck -11.637 0.943795 -9.87024
upperneck 38.8797 -2.99333 4.82663
head 15.9082 -3.73611 2.90446
rclavicle 2.83268e-014 7.35503e-014
rhumerus -27.4476 -9.61498 -77.4368
rradius 29.8384
rwrist -11.276
rhand -20.2644 9.68189
rfingers 7.12502
rthumb 6.0846 -20.2107
lclavicle 2.83268e-014 7.35503e-014
lhumerus -36.7307 3.59944 86.6136
lradius 34.2302
lwrist 6.13798
lhand -21.0778 19.7245
lfingers 7.12502
lthumb 5.29924 -310.362
rfemur -1.00625 -4.81014 34.1435
rtibia 17.4924
rfoot -11.7339 9.6438
rtoes 18.7671
lfemur -24.0409 1.63613 -6.95948
ltibia 57.5426
lfoot -6.21411 -5.45858
ltoes -0.170847
